<svg width="103" height="117" viewBox="0 0 103 117" fill="none" xmlns="http://www.w3.org/2000/svg">
<path d="M45.9177 110.995L2.23833 65.6504C0.802303 64.1596 0 62.1703 0 60.1003V8C0 3.58172 3.58172 0 8 0H95C99.4183 0 103 3.58172 103 8V60.1186C103 62.1776 102.206 64.1574 100.783 65.646L57.4627 110.973C54.3204 114.26 49.0728 114.271 45.9177 110.995Z" fill="#1F62E0"/>
<path d="M30.9907 68C29.3444 68 28.4031 66.1219 29.3885 64.803L43.1932 46.3253C43.7154 45.6263 43.7242 44.6695 43.215 43.961L30.4262 26.1672C29.4752 24.8441 30.4208 23 32.0502 23H42.0319C42.698 23 43.3203 23.3316 43.6919 23.8844L47.9621 30.2384L51.4859 35.7809C51.6048 35.9681 51.8112 36.0814 52.0329 36.0814C52.2522 36.0814 52.4566 35.9705 52.5762 35.7868L56.1877 30.2384L60.5451 23.8706C60.9179 23.3258 61.5355 23 62.1957 23H70.8754C72.5189 23 73.4609 24.8721 72.4815 26.1919L59.8038 43.2754C59.2835 43.9766 59.2782 44.9343 59.7907 45.6412L73.699 64.8261C74.6576 66.1484 73.713 68 72.0798 68H62.0228C61.3604 68 60.741 67.672 60.3687 67.1242L55.2148 59.5407L51.4286 53.8165C51.3075 53.6334 51.1026 53.5233 50.883 53.5233C50.6611 53.5233 50.4543 53.6358 50.3338 53.8222L46.6354 59.5407L41.3941 67.1359C41.0207 67.677 40.4054 68 39.748 68H30.9907Z" fill="white"/>
</svg>
